ffmpeg started on 2025-05-12 at 18:44:10
Report written to "D:\Convert\FFMetrics\reports\ssim_report-6.txt"
Log level: 32
Command line:
ffmpeg -hide_banner -nostdin -i "G:\\\xc0\xed\xe8\xec\xe5\\\xce\xed\xe3\xee\xe8\xed\xe3\xe8\\!_35_\xcb\xe5\xf2\xee_2024\\DreamCast\\\xcf\xee\xea\xe0-\xef\xee\xea\xe0, \xc7\xe5\xec\xeb\xff\\[DC] Bye Bye Earth - 05_Telegram_HEVC.mkv" -i "G:\\\xc0\xed\xe8\xec\xe5\\\xce\xed\xe3\xee\xe8\xed\xe3\xe8\\!_35_\xcb\xe5\xf2\xee_2024\\DreamCast\\\xcf\xee\xea\xe0-\xef\xee\xea\xe0, \xc7\xe5\xec\xeb\xff\\[DC] Bye Bye Earth - 05_Telegram.mp4" -lavfi "[0:v]settb=AVTB,setpts=PTS-STARTPTS,format=pix_fmts=yuv420p10,fps=24000/1001,scale=1920:1080:flags=bicubic[main];[1:v]settb=AVTB,setpts=PTS-STARTPTS,format=pix_fmts=yuv420p,fps=24000/1001,scale=1920:1080:flags=bicubic[ref];[main][ref]ssim=eof_action=endall:stats_file='D\\:/Convert/FFMetrics/logs/ssim_logfile-6.txt'" -f null -
Input #0, matroska,webm, from 'G:\Аниме\Онгоинги\!_35_Лето_2024\DreamCast\Пока-пока, Земля\[DC] Bye Bye Earth - 05_Telegram_HEVC.mkv':
  Metadata:
    COMPATIBLE_BRANDS: isomiso2avc1mp41
    MAJOR_BRAND     : isom
    MINOR_VERSION   : 512
    ENCODER         : Lavf61.7.100
  Duration: 00:23:48.35, start: -0.021000, bitrate: 1633 kb/s
  Stream #0:0: Video: hevc (Main 10), yuv420p10le(tv, bt709, progressive), 1920x1080 [SAR 1:1 DAR 16:9], 23.98 fps, 23.98 tbr, 1k tbn (default)
      Metadata:
        HANDLER_NAME    : VideoHandler
        VENDOR_ID       : [0][0][0][0]
        ENCODER         : Lavc61.19.100 libx265
        BPS             : 1438225
        DURATION        : 00:23:46.591708333
        NUMBER_OF_FRAMES: 34204
        NUMBER_OF_BYTES : 256469980
        _STATISTICS_WRITING_APP: mkvpropedit v66.0.0 ('Josie') 64-bit
        _STATISTICS_WRITING_DATE_UTC: 2025-05-09 16:01:07
        _STATISTICS_TAGS: BPS DURATION NUMBER_OF_FRAMES NUMBER_OF_BYTES
  Stream #0:1: Audio: aac (LC), 48000 Hz, stereo, fltp (default)
      Metadata:
        HANDLER_NAME    : SoundHandler
        VENDOR_ID       : [0][0][0][0]
        ENCODER         : Lavc61.19.100 aac
        BPS             : 193275
        DURATION        : 00:23:48.352000000
        NUMBER_OF_FRAMES: 66955
        NUMBER_OF_BYTES : 34508266
        _STATISTICS_WRITING_APP: mkvpropedit v66.0.0 ('Josie') 64-bit
        _STATISTICS_WRITING_DATE_UTC: 2025-05-09 16:01:07
        _STATISTICS_TAGS: BPS DURATION NUMBER_OF_FRAMES NUMBER_OF_BYTES
Input #1, mov,mp4,m4a,3gp,3g2,mj2, from 'G:\Аниме\Онгоинги\!_35_Лето_2024\DreamCast\Пока-пока, Земля\[DC] Bye Bye Earth - 05_Telegram.mp4':
  Metadata:
    major_brand     : isom
    minor_version   : 512
    compatible_brands: isomiso2avc1mp41
    encoder         : Lavf61.1.100
  Duration: 00:23:48.29, start: 0.000000, bitrate: 3848 kb/s
  Stream #1:0[0x1](und): Video: h264 (High) (avc1 / 0x31637661), yuv420p(tv, bt709, progressive), 1920x1080 [SAR 1:1 DAR 16:9], 3705 kb/s, 23.98 fps, 23.98 tbr, 24k tbn (default)
      Metadata:
        handler_name    : VideoHandler
        vendor_id       : [0][0][0][0]
        encoder         : Lavc61.3.100 h264_qsv
  Stream #1:1[0x2](und): Audio: aac (HE-AACv2) (mp4a / 0x6134706D), 48000 Hz, stereo, fltp, 144 kb/s (default)
      Metadata:
        handler_name    : SoundHandler
        vendor_id       : [0][0][0][0]
Stream mapping:
  Stream #0:0 (hevc) -> settb:default
  Stream #1:0 (h264) -> settb:default
  ssim:default -> Stream #0:0 (wrapped_avframe)
  Stream #0:1 -> #0:1 (aac (native) -> pcm_s16le (native))
Output #0, null, to 'pipe:':
  Metadata:
    COMPATIBLE_BRANDS: isomiso2avc1mp41
    MAJOR_BRAND     : isom
    MINOR_VERSION   : 512
    encoder         : Lavf61.7.100
  Stream #0:0: Video: wrapped_avframe, yuv420p10le(tv, bt709, progressive), 1920x1080 [SAR 1:1 DAR 16:9], q=2-31, 200 kb/s, 23.98 fps, 23.98 tbn
      Metadata:
        encoder         : Lavc61.19.100 wrapped_avframe
  Stream #0:1: Audio: pcm_s16le, 48000 Hz, stereo, s16, 1536 kb/s (default)
      Metadata:
        HANDLER_NAME    : SoundHandler
        VENDOR_ID       : [0][0][0][0]
        _STATISTICS_TAGS: BPS DURATION NUMBER_OF_FRAMES NUMBER_OF_BYTES
        BPS             : 193275
        DURATION        : 00:23:48.352000000
        NUMBER_OF_FRAMES: 66955
        NUMBER_OF_BYTES : 34508266
        _STATISTICS_WRITING_APP: mkvpropedit v66.0.0 ('Josie') 64-bit
        _STATISTICS_WRITING_DATE_UTC: 2025-05-09 16:01:07
        encoder         : Lavc61.19.100 pcm_s16le
frame=  177 fps=0.0 q=-0.0 size=N/A time=00:00:07.38 bitrate=N/A speed=14.3x    frame=  388 fps=380 q=-0.0 size=N/A time=00:00:16.18 bitrate=N/A speed=15.8x    frame=  574 fps=372 q=-0.0 size=N/A time=00:00:23.94 bitrate=N/A speed=15.5x    frame=  788 fps=385 q=-0.0 size=N/A time=00:00:32.86 bitrate=N/A speed=  16x    frame= 1020 fps=396 q=-0.0 size=N/A time=00:00:42.54 bitrate=N/A speed=16.5x    frame= 1186 fps=385 q=-0.0 size=N/A time=00:00:49.46 bitrate=N/A speed=16.1x    frame= 1344 fps=373 q=-0.0 size=N/A time=00:00:56.05 bitrate=N/A speed=15.5x    frame= 1479 fps=359 q=-0.0 size=N/A time=00:01:01.68 bitrate=N/A speed=  15x    frame= 1630 fps=352 q=-0.0 size=N/A time=00:01:07.98 bitrate=N/A speed=14.7x    frame= 1806 fps=350 q=-0.0 size=N/A time=00:01:15.32 bitrate=N/A speed=14.6x    frame= 1971 fps=348 q=-0.0 size=N/A time=00:01:22.20 bitrate=N/A speed=14.5x    frame= 2156 fps=349 q=-0.0 size=N/A time=00:01:29.92 bitrate=N/A speed=14.6x    frame= 2396 fps=358 q=-0.0 size=N/A time=00:01:39.93 bitrate=N/A speed=14.9x    frame= 2622 fps=364 q=-0.0 size=N/A time=00:01:49.35 bitrate=N/A speed=15.2x    frame= 2845 fps=368 q=-0.0 size=N/A time=00:01:58.66 bitrate=N/A speed=15.4x    frame= 3057 fps=371 q=-0.0 size=N/A time=00:02:07.50 bitrate=N/A speed=15.5x    frame= 3231 fps=369 q=-0.0 size=N/A time=00:02:14.75 bitrate=N/A speed=15.4x    frame= 3448 fps=372 q=-0.0 size=N/A time=00:02:23.81 bitrate=N/A speed=15.5x    frame= 3656 fps=373 q=-0.0 size=N/A time=00:02:32.48 bitrate=N/A speed=15.6x    frame= 3863 fps=375 q=-0.0 size=N/A time=00:02:41.11 bitrate=N/A speed=15.6x    frame= 4063 fps=375 q=-0.0 size=N/A time=00:02:49.46 bitrate=N/A speed=15.7x    frame= 4240 fps=374 q=-0.0 size=N/A time=00:02:56.84 bitrate=N/A speed=15.6x    frame= 4426 fps=373 q=-0.0 size=N/A time=00:03:04.60 bitrate=N/A speed=15.6x    frame= 4647 fps=376 q=-0.0 size=N/A time=00:03:13.81 bitrate=N/A speed=15.7x    frame= 4849 fps=376 q=-0.0 size=N/A time=00:03:22.24 bitrate=N/A speed=15.7x    frame= 5062 fps=378 q=-0.0 size=N/A time=00:03:31.12 bitrate=N/A speed=15.8x    frame= 5245 fps=377 q=-0.0 size=N/A time=00:03:38.76 bitrate=N/A speed=15.7x    frame= 5479 fps=380 q=-0.0 size=N/A time=00:03:48.51 bitrate=N/A speed=15.8x    frame= 5714 fps=382 q=-0.0 size=N/A time=00:03:58.32 bitrate=N/A speed=15.9x    frame= 5914 fps=383 q=-0.0 size=N/A time=00:04:06.66 bitrate=N/A speed=  16x    frame= 6128 fps=383 q=-0.0 size=N/A time=00:04:15.58 bitrate=N/A speed=  16x    frame= 6344 fps=385 q=-0.0 size=N/A time=00:04:24.59 bitrate=N/A speed=  16x    frame= 6578 fps=387 q=-0.0 size=N/A time=00:04:34.35 bitrate=N/A speed=16.1x    frame= 6827 fps=390 q=-0.0 size=N/A time=00:04:44.74 bitrate=N/A speed=16.3x    frame= 7067 fps=392 q=-0.0 size=N/A time=00:04:54.75 bitrate=N/A speed=16.3x    frame= 7321 fps=395 q=-0.0 size=N/A time=00:05:05.34 bitrate=N/A speed=16.5x    frame= 7569 fps=397 q=-0.0 size=N/A time=00:05:15.69 bitrate=N/A speed=16.6x    frame= 7820 fps=399 q=-0.0 size=N/A time=00:05:26.15 bitrate=N/A speed=16.6x    frame= 8055 fps=401 q=-0.0 size=N/A time=00:05:35.96 bitrate=N/A speed=16.7x    frame= 8298 fps=403 q=-0.0 size=N/A time=00:05:46.09 bitrate=N/A speed=16.8x    frame= 8558 fps=405 q=-0.0 size=N/A time=00:05:56.93 bitrate=N/A speed=16.9x    frame= 8780 fps=406 q=-0.0 size=N/A time=00:06:06.19 bitrate=N/A speed=16.9x    frame= 9036 fps=408 q=-0.0 size=N/A time=00:06:16.87 bitrate=N/A speed=  17x    frame= 9275 fps=409 q=-0.0 size=N/A time=00:06:26.84 bitrate=N/A speed=17.1x    frame= 9525 fps=411 q=-0.0 size=N/A time=00:06:37.27 bitrate=N/A speed=17.1x    frame= 9749 fps=411 q=-0.0 size=N/A time=00:06:46.61 bitrate=N/A speed=17.1x    frame= 9961 fps=411 q=-0.0 size=N/A time=00:06:55.45 bitrate=N/A speed=17.2x    frame=10230 fps=413 q=-0.0 size=N/A time=00:07:06.67 bitrate=N/A speed=17.2x    frame=10466 fps=414 q=-0.0 size=N/A time=00:07:16.51 bitrate=N/A speed=17.3x    frame=10694 fps=415 q=-0.0 size=N/A time=00:07:26.02 bitrate=N/A speed=17.3x    frame=10888 fps=414 q=-0.0 size=N/A time=00:07:34.12 bitrate=N/A speed=17.3x    frame=11119 fps=415 q=-0.0 size=N/A time=00:07:43.75 bitrate=N/A speed=17.3x    frame=11380 fps=417 q=-0.0 size=N/A time=00:07:54.64 bitrate=N/A speed=17.4x    frame=11627 fps=418 q=-0.0 size=N/A time=00:08:04.94 bitrate=N/A speed=17.4x    frame=11864 fps=418 q=-0.0 size=N/A time=00:08:14.82 bitrate=N/A speed=17.5x    frame=12114 fps=420 q=-0.0 size=N/A time=00:08:25.25 bitrate=N/A speed=17.5x    frame=12376 fps=421 q=-0.0 size=N/A time=00:08:36.18 bitrate=N/A speed=17.6x    frame=12645 fps=423 q=-0.0 size=N/A time=00:08:47.40 bitrate=N/A speed=17.6x    frame=12923 fps=425 q=-0.0 size=N/A time=00:08:58.99 bitrate=N/A speed=17.7x    frame=13173 fps=426 q=-0.0 size=N/A time=00:09:09.42 bitrate=N/A speed=17.8x    frame=13462 fps=428 q=-0.0 size=N/A time=00:09:21.47 bitrate=N/A speed=17.9x    frame=13713 fps=429 q=-0.0 size=N/A time=00:09:31.94 bitrate=N/A speed=17.9x    frame=13946 fps=429 q=-0.0 size=N/A time=00:09:41.66 bitrate=N/A speed=17.9x    frame=14200 fps=430 q=-0.0 size=N/A time=00:09:52.25 bitrate=N/A speed=  18x    frame=14478 fps=432 q=-0.0 size=N/A time=00:10:03.85 bitrate=N/A speed=  18x    frame=14720 fps=433 q=-0.0 size=N/A time=00:10:13.94 bitrate=N/A speed=  18x    frame=14958 fps=433 q=-0.0 size=N/A time=00:10:23.87 bitrate=N/A speed=18.1x    frame=15212 fps=434 q=-0.0 size=N/A time=00:10:34.46 bitrate=N/A speed=18.1x    frame=15441 fps=434 q=-0.0 size=N/A time=00:10:44.01 bitrate=N/A speed=18.1x    frame=15710 fps=435 q=-0.0 size=N/A time=00:10:55.23 bitrate=N/A speed=18.2x    frame=15956 fps=436 q=-0.0 size=N/A time=00:11:05.49 bitrate=N/A speed=18.2x    frame=16224 fps=437 q=-0.0 size=N/A time=00:11:16.67 bitrate=N/A speed=18.2x    frame=16481 fps=438 q=-0.0 size=N/A time=00:11:27.39 bitrate=N/A speed=18.3x    frame=16746 fps=439 q=-0.0 size=N/A time=00:11:38.44 bitrate=N/A speed=18.3x    frame=16991 fps=439 q=-0.0 size=N/A time=00:11:48.66 bitrate=N/A speed=18.3x    frame=17269 fps=441 q=-0.0 size=N/A time=00:12:00.26 bitrate=N/A speed=18.4x    frame=17505 fps=441 q=-0.0 size=N/A time=00:12:10.10 bitrate=N/A speed=18.4x    frame=17767 fps=442 q=-0.0 size=N/A time=00:12:21.03 bitrate=N/A speed=18.4x    frame=18011 fps=442 q=-0.0 size=N/A time=00:12:31.20 bitrate=N/A speed=18.4x    frame=18259 fps=443 q=-0.0 size=N/A time=00:12:41.55 bitrate=N/A speed=18.5x    frame=18501 fps=443 q=-0.0 size=N/A time=00:12:51.64 bitrate=N/A speed=18.5x    frame=18712 fps=443 q=-0.0 size=N/A time=00:13:00.44 bitrate=N/A speed=18.5x    frame=18935 fps=442 q=-0.0 size=N/A time=00:13:09.74 bitrate=N/A speed=18.5x    frame=19188 fps=443 q=-0.0 size=N/A time=00:13:20.29 bitrate=N/A speed=18.5x    frame=19412 fps=443 q=-0.0 size=N/A time=00:13:29.64 bitrate=N/A speed=18.5x    frame=19632 fps=443 q=-0.0 size=N/A time=00:13:38.81 bitrate=N/A speed=18.5x    frame=19860 fps=443 q=-0.0 size=N/A time=00:13:48.32 bitrate=N/A speed=18.5x    frame=20096 fps=443 q=-0.0 size=N/A time=00:13:58.17 bitrate=N/A speed=18.5x    frame=20314 fps=443 q=-0.0 size=N/A time=00:14:07.26 bitrate=N/A speed=18.5x    frame=20514 fps=442 q=-0.0 size=N/A time=00:14:15.60 bitrate=N/A speed=18.4x    frame=20685 fps=441 q=-0.0 size=N/A time=00:14:22.73 bitrate=N/A speed=18.4x    frame=20871 fps=440 q=-0.0 size=N/A time=00:14:30.49 bitrate=N/A speed=18.3x    frame=21058 fps=439 q=-0.0 size=N/A time=00:14:38.29 bitrate=N/A speed=18.3x    frame=21283 fps=439 q=-0.0 size=N/A time=00:14:47.67 bitrate=N/A speed=18.3x    frame=21509 fps=439 q=-0.0 size=N/A time=00:14:57.10 bitrate=N/A speed=18.3x    frame=21702 fps=438 q=-0.0 size=N/A time=00:15:05.15 bitrate=N/A speed=18.3x    frame=21934 fps=439 q=-0.0 size=N/A time=00:15:14.83 bitrate=N/A speed=18.3x    frame=22164 fps=439 q=-0.0 size=N/A time=00:15:24.42 bitrate=N/A speed=18.3x    frame=22414 fps=439 q=-0.0 size=N/A time=00:15:34.85 bitrate=N/A speed=18.3x    frame=22679 fps=440 q=-0.0 size=N/A time=00:15:45.90 bitrate=N/A speed=18.3x    frame=22957 fps=441 q=-0.0 size=N/A time=00:15:57.49 bitrate=N/A speed=18.4x    frame=23222 fps=441 q=-0.0 size=N/A time=00:16:08.55 bitrate=N/A speed=18.4x    frame=23494 fps=442 q=-0.0 size=N/A time=00:16:19.89 bitrate=N/A speed=18.4x    frame=23773 fps=443 q=-0.0 size=N/A time=00:16:31.53 bitrate=N/A speed=18.5x    frame=24037 fps=444 q=-0.0 size=N/A time=00:16:42.54 bitrate=N/A speed=18.5x    frame=24319 fps=445 q=-0.0 size=N/A time=00:16:54.30 bitrate=N/A speed=18.6x    frame=24582 fps=446 q=-0.0 size=N/A time=00:17:05.27 bitrate=N/A speed=18.6x    frame=24859 fps=446 q=-0.0 size=N/A time=00:17:16.82 bitrate=N/A speed=18.6x    frame=25114 fps=447 q=-0.0 size=N/A time=00:17:27.46 bitrate=N/A speed=18.6x    frame=25390 fps=448 q=-0.0 size=N/A time=00:17:38.97 bitrate=N/A speed=18.7x    frame=25659 fps=448 q=-0.0 size=N/A time=00:17:50.19 bitrate=N/A speed=18.7x    frame=25920 fps=449 q=-0.0 size=N/A time=00:18:01.08 bitrate=N/A speed=18.7x    frame=26168 fps=449 q=-0.0 size=N/A time=00:18:11.42 bitrate=N/A speed=18.7x    frame=26446 fps=450 q=-0.0 size=N/A time=00:18:23.01 bitrate=N/A speed=18.8x    frame=26708 fps=450 q=-0.0 size=N/A time=00:18:33.94 bitrate=N/A speed=18.8x    frame=26992 fps=451 q=-0.0 size=N/A time=00:18:45.79 bitrate=N/A speed=18.8x    frame=27259 fps=452 q=-0.0 size=N/A time=00:18:56.92 bitrate=N/A speed=18.8x    frame=27513 fps=452 q=-0.0 size=N/A time=00:19:07.52 bitrate=N/A speed=18.9x    frame=27769 fps=452 q=-0.0 size=N/A time=00:19:18.19 bitrate=N/A speed=18.9x    frame=28031 fps=453 q=-0.0 size=N/A time=00:19:29.12 bitrate=N/A speed=18.9x    frame=28300 fps=453 q=-0.0 size=N/A time=00:19:40.34 bitrate=N/A speed=18.9x    frame=28554 fps=454 q=-0.0 size=N/A time=00:19:50.93 bitrate=N/A speed=18.9x    frame=28821 fps=454 q=-0.0 size=N/A time=00:20:02.07 bitrate=N/A speed=18.9x    frame=29093 fps=455 q=-0.0 size=N/A time=00:20:13.42 bitrate=N/A speed=  19x    frame=29358 fps=455 q=-0.0 size=N/A time=00:20:24.47 bitrate=N/A speed=  19x    frame=29620 fps=456 q=-0.0 size=N/A time=00:20:35.40 bitrate=N/A speed=  19x    frame=29877 fps=456 q=-0.0 size=N/A time=00:20:46.11 bitrate=N/A speed=  19x    frame=30135 fps=456 q=-0.0 size=N/A time=00:20:56.88 bitrate=N/A speed=  19x    frame=30410 fps=457 q=-0.0 size=N/A time=00:21:08.35 bitrate=N/A speed=19.1x    frame=30654 fps=457 q=-0.0 size=N/A time=00:21:18.52 bitrate=N/A speed=19.1x    frame=30892 fps=457 q=-0.0 size=N/A time=00:21:28.45 bitrate=N/A speed=19.1x    frame=31149 fps=457 q=-0.0 size=N/A time=00:21:39.17 bitrate=N/A speed=19.1x    frame=31348 fps=457 q=-0.0 size=N/A time=00:21:47.47 bitrate=N/A speed=19.1x    frame=31547 fps=456 q=-0.0 size=N/A time=00:21:55.77 bitrate=N/A speed=  19x    frame=31678 fps=455 q=-0.0 size=N/A time=00:22:01.23 bitrate=N/A speed=  19x    frame=31867 fps=454 q=-0.0 size=N/A time=00:22:09.11 bitrate=N/A speed=18.9x    frame=32011 fps=453 q=-0.0 size=N/A time=00:22:15.12 bitrate=N/A speed=18.9x    frame=32144 fps=451 q=-0.0 size=N/A time=00:22:20.67 bitrate=N/A speed=18.8x    frame=32294 fps=450 q=-0.0 size=N/A time=00:22:26.92 bitrate=N/A speed=18.8x    frame=32472 fps=449 q=-0.0 size=N/A time=00:22:34.35 bitrate=N/A speed=18.7x    frame=32647 fps=449 q=-0.0 size=N/A time=00:22:41.65 bitrate=N/A speed=18.7x    frame=32817 fps=448 q=-0.0 size=N/A time=00:22:48.74 bitrate=N/A speed=18.7x    frame=32950 fps=447 q=-0.0 size=N/A time=00:22:54.28 bitrate=N/A speed=18.6x    frame=33097 fps=445 q=-0.0 size=N/A time=00:23:00.42 bitrate=N/A speed=18.6x    frame=33237 fps=444 q=-0.0 size=N/A time=00:23:06.25 bitrate=N/A speed=18.5x    frame=33377 fps=443 q=-0.0 size=N/A time=00:23:12.09 bitrate=N/A speed=18.5x    frame=33529 fps=442 q=-0.0 size=N/A time=00:23:18.43 bitrate=N/A speed=18.4x    frame=33685 fps=441 q=-0.0 size=N/A time=00:23:24.94 bitrate=N/A speed=18.4x    frame=33862 fps=440 q=-0.0 size=N/A time=00:23:32.32 bitrate=N/A speed=18.4x    frame=34056 fps=440 q=-0.0 size=N/A time=00:23:40.41 bitrate=N/A speed=18.3x    [Parsed_ssim_10 @ 000001f8fcf0d500] SSIM Y:0.993000 (21.549136) U:0.993968 (22.195665) V:0.992693 (21.362451) All:0.993110 (21.618004)
[out#0/null @ 000001f8fbf354c0] video:14697KiB audio:267820KiB subtitle:0KiB other streams:0KiB global headers:0KiB muxing overhead: unknown
frame=34204 fps=440 q=-0.0 Lsize=N/A time=00:23:46.59 bitrate=N/A speed=18.3x    
